<svg id="Layer_1" data-name="Layer 1" xmlns="http://www.w3.org/2000/svg" xmlns:xlink="http://www.w3.org/1999/xlink" viewBox="0 0 35.25 35.25"><defs><style>.cls-1{fill:url(#linear-gradient);}</style><linearGradient id="linear-gradient" x1="47.12" y1="56" x2="47.12" y2="20.75" gradientTransform="matrix(1, 0, 0, -1, 0, 56)" gradientUnits="userSpaceOnUse"><stop offset="0" stop-color="#cf873c"/><stop offset="1" stop-color="#f2a842"/></linearGradient></defs><path class="cls-1" d="M64.55,0C54.9,1.15,45,4.3,44.38,13.83c-.3,4.46,1.08,7.81,2.64,11A21.24,21.24,0,0,0,29.5,18.73c4.84,1.36,10.54,4,13.61,7.39.65.73,1.6,2,1.37,3.07-.37,1.81-3.74,1.44-5.77,1.54,4.22,1.68,8.95,4.71,15,4.51,3-.1,5.23-1.91,5-5.28-.43-6.05-4.92-11.22-5.39-18C52.77,4.2,58.24,1.37,64.36.1a.53.53,0,0,0,.37,0s0-.06-.16-.06Z" transform="translate(-29.5)"/></svg>